<?xml version="1.0" encoding="UTF-8" standalone="no"?>
<!-- Created with Inkscape (http://www.inkscape.org/) -->

<svg
   xmlns:dc="http://purl.org/dc/elements/1.1/"
   xmlns:cc="http://creativecommons.org/ns#"
   xmlns:rdf="http://www.w3.org/1999/02/22-rdf-syntax-ns#"
   xmlns:svg="http://www.w3.org/2000/svg"
   xmlns="http://www.w3.org/2000/svg"
   xmlns:sodipodi="http://sodipodi.sourceforge.net/DTD/sodipodi-0.dtd"
   xmlns:inkscape="http://www.inkscape.org/namespaces/inkscape"
   width="580"
   height="900"
   id="svg2"
   version="1.1"
   inkscape:version="0.48.3.1 r9886"
   sodipodi:docname="5grønsquiggly.svg">
  <defs
     id="defs4" />
  <sodipodi:namedview
     id="base"
     pagecolor="#ffffff"
     bordercolor="#666666"
     borderopacity="1.0"
     inkscape:pageopacity="0.0"
     inkscape:pageshadow="2"
     inkscape:zoom="0.98994949"
     inkscape:cx="148.87445"
     inkscape:cy="315.62285"
     inkscape:document-units="px"
     inkscape:current-layer="layer1"
     showgrid="false"
     units="px"
     showguides="true"
     inkscape:guide-bbox="true"
     inkscape:snap-grids="false"
     inkscape:snap-center="true"
     inkscape:window-width="1366"
     inkscape:window-height="768"
     inkscape:window-x="0"
     inkscape:window-y="0"
     inkscape:window-maximized="0">
    <sodipodi:guide
       orientation="0,1"
       position="-292.85714,750"
       id="guide3032" />
    <sodipodi:guide
       orientation="1,0"
       position="75,854.28571"
       id="guide3036" />
    <sodipodi:guide
       orientation="0,1"
       position="337.391,150"
       id="guide3084" />
    <sodipodi:guide
       orientation="1,0"
       position="505,150"
       id="guide3086" />
    <sodipodi:guide
       orientation="1,0"
       position="290,537.14286"
       id="guide3143" />
    <sodipodi:guide
       orientation="0,1"
       position="-1394.2857,450"
       id="guide3145" />
  </sodipodi:namedview>
  <metadata
     id="metadata7">
    <rdf:RDF>
      <cc:Work
         rdf:about="">
        <dc:format>image/svg+xml</dc:format>
        <dc:type
           rdf:resource="http://purl.org/dc/dcmitype/StillImage" />
        <dc:title></dc:title>
      </cc:Work>
    </rdf:RDF>
  </metadata>
  <g
     inkscape:label="Layer 1"
     inkscape:groupmode="layer"
     id="layer1"
     transform="translate(0,-152.3609)">
    <flowRoot
       xml:space="preserve"
       id="flowRoot2993-1"
       style="font-size:72px;font-style:normal;font-variant:normal;font-weight:normal;font-stretch:normal;line-height:125%;letter-spacing:0px;word-spacing:0px;fill:#000000;fill-opacity:1;stroke:none;font-family:Comfortaa;-inkscape-font-specification:Comfortaa"
       transform="translate(61.433036,245.70465)"><flowRegion
         id="flowRegion2995-7"><rect
           id="rect2997-5"
           width="66.733147"
           height="108.7114"
           x="-16.018862"
           y="-40.528042"
           style="font-size:72px" /></flowRegion><flowPara
         id="flowPara2999-5" /></flowRoot>    <text
       xml:space="preserve"
       style="font-size:40px;font-style:normal;font-variant:normal;font-weight:normal;font-stretch:normal;line-height:125%;letter-spacing:0px;word-spacing:0px;fill:#000000;fill-opacity:1;stroke:none;font-family:Comfortaa;-inkscape-font-specification:Comfortaa"
       x="75"
       y="302.3609"
       id="text3038"
       sodipodi:linespacing="125%"><tspan
         sodipodi:role="line"
         id="tspan3040"
         x="75"
         y="302.3609"
         style="font-size:100px">5</tspan></text>
    <text
       xml:space="preserve"
       style="font-size:40px;font-style:normal;font-variant:normal;font-weight:normal;font-stretch:normal;line-height:125%;letter-spacing:0px;word-spacing:0px;fill:#000000;fill-opacity:1;stroke:none;font-family:Comfortaa;-inkscape-font-specification:Comfortaa"
       x="-505"
       y="-902.3609"
       id="text3038-3"
       sodipodi:linespacing="125%"
       transform="scale(-1,-1)"><tspan
         sodipodi:role="line"
         id="tspan3040-1"
         x="-505"
         y="-902.3609"
         style="font-size:100px">5</tspan></text>
    <g
       id="layer1-4"
       inkscape:label="Layer 1"
       transform="matrix(1.0792873,0,0,1.0792873,4.2523435,-315.06922)">
      <g
         style="stroke:#000000;stroke-opacity:1"
         transform="translate(164.75588,-127.27922)"
         id="g5083">
        <g
           id="g3391"
           transform="matrix(4.2076809,0,0,3.6168875,1660.4595,-3070.2984)">
          <path
             inkscape:connector-curvature="0"
             id="path3103"
             d="m -393.6804,1080.0208 c 0.44009,-1.5404 2.12615,-3.0042 4.6084,-4.0009 2.68317,-1.0774 6.04917,-1.6639 10.02073,-1.7461 7.27211,-0.1505 14.66955,1.7184 19.76471,4.9934 0.84929,0.5459 1.46323,1.0038 2.4126,1.7995 2.18261,1.8292 3.5326,3.5238 4.75475,5.9684 0.90403,1.8083 1.52964,3.9487 1.78085,6.0929 0.10477,0.8942 0.10318,3.7023 -0.003,4.7257 -0.21509,2.0801 -1.16119,6.7564 -1.80995,8.9462 -0.1356,0.4577 -0.64566,2.0092 -1.13344,3.4477 -2.07268,6.1124 -2.43254,7.311 -4.02434,13.4044 -1.64397,6.293 -1.70227,6.5571 -1.70423,7.7219 -0.002,1.0244 0.29819,3.5736 0.57064,4.8502 0.52566,2.4631 1.10866,4.3984 2.00551,6.6576 0.82025,2.0663 1.61866,3.7186 3.47556,7.1926 0.47182,0.8828 0.98554,1.8867 1.14162,2.231 0.62474,1.3783 1.10153,2.8219 1.32451,4.0106 0.14755,0.7864 0.15053,2.4264 0.006,3.0384 -0.53597,2.2621 -2.07045,3.6401 -4.81704,4.3258 -0.90075,0.2249 -1.38882,0.2772 -2.93797,0.3152 -2.05647,0.05 -3.68325,-0.1122 -6.05482,-0.6049 -5.05914,-1.0511 -10.63909,-3.4532 -15.05867,-6.4826 -1.83547,-1.2581 -2.99113,-2.2248 -4.47372,-3.7424 -1.93979,-1.9856 -3.10414,-3.8017 -3.85111,-6.007 -0.17796,-0.5254 -0.41454,-1.1542 -0.52574,-1.3974 -0.37232,-0.8142 -0.6869,-2.1151 -0.89034,-3.6817 -0.11409,-0.8786 -0.21958,-3.4596 -0.21989,-5.3796 -6.4e-4,-4.0225 0.79066,-10.0389 1.86075,-14.1474 0.21645,-0.8311 0.85432,-2.9312 0.92983,-3.0613 0.0451,-0.078 0.4797,-1.4496 0.9604,-3.0316 1.89411,-6.2337 2.39124,-13.3927 1.22113,-17.5849 -0.72961,-2.614 -2.04039,-5.3885 -3.95055,-8.362 -0.51675,-0.8044 -2.37815,-3.5724 -3.75804,-5.5884 -0.7199,-1.0517 -1.37215,-2.1574 -1.53532,-2.6026 -0.17987,-0.4908 -0.23111,-1.8056 -0.0897,-2.3007 l 0,0 z"
             style="fill:#ff0000;stroke-width:0.92653733" />
          <path
             sodipodi:nodetypes="ssssccsssccsccccc"
             inkscape:connector-curvature="0"
             id="path3043"
             d="m -393.64198,1075.7696 c 2.89583,-3.4415 7.74983,-4.8669 16.57366,-4.8669 25.73574,0 36.86354,19.5916 24.49897,48.056 -4.1169,9.4776 -4.01145,20.7299 4.23815,32.9137 2.78924,4.1194 3.02557,6.0512 1.10656,9.7621 -10.90559,12.8399 -35.65072,1.1471 -41.1078,-9.3163 -5.41211,-11.0455 -4.77219,-22.2544 0.21295,-35.4306 3.88751,-10.275 3.16773,-15.249 -3.89733,-26.9324 -4.46043,-7.3762 -4.8073,-10.4039 -1.62516,-14.1856 z m 2.28586,8.8483 c 2.7336,4.3131 6.60348,9.1853 8.06239,15.0074 1.15089,4.9704 0.34342,12.6989 -2.03289,19.4573 -3.02353,8.5992 -3.62891,23.045 -1.44217,26.3824 3.21337,15.9655 46.862,28.1841 32.2591,2.8036 -3.36851,-6.3155 -5.18721,-12.2683 -5.18721,-18.1558 5.42899,-23.07 5.89189,-18.5694 7.54192,-27.888 7.72198,-33.9019 -47.84177,-30.7546 -39.20114,-17.6069 z"
             style="fill:#000000;stroke-width:0.92653733" />
        </g>
        <path
           style="color:#000000;fill:#008000;fill-opacity:1;fill-rule:nonzero;stroke:#000000;stroke-width:12.90974903;stroke-linecap:round;stroke-linejoin:miter;stroke-miterlimit:17.60000038;stroke-opacity:1;stroke-dasharray:none;stroke-dashoffset:0;marker:none;visibility:visible;display:inline;overflow:visible;enable-background:accumulate"
           d="m 326.59332,617.82757 c -41.27198,-6.00663 -86.2138,-29.19253 -100.95355,-52.08287 -9.02655,-14.01794 -12.83572,-31.38092 -11.7398,-53.51243 1.17032,-23.63373 4.02408,-37.71364 13.20582,-65.15484 3.53203,-10.55609 7.22425,-23.5113 8.20493,-28.78935 2.40044,-12.91926 2.47477,-34.50935 0.14955,-43.43655 -3.03371,-11.64727 -10.92554,-25.56788 -25.92799,-45.73509 -8.94878,-12.02948 -14.3413,-20.20483 -14.74434,-22.35318 -2.3332,-12.43703 18.07231,-22.46907 50.97202,-25.05959 11.03067,-0.86855 17.88392,-0.85647 28.28427,0.0499 38.01408,3.31274 67.38641,15.22714 85.33717,34.61561 21.07349,22.76132 22.11826,51.49834 3.65031,100.40371 -7.29811,19.32624 -14.59926,41.92373 -20.67542,63.99157 -4.03531,14.65573 -4.13318,18.20937 -0.93223,33.84979 2.93809,14.35609 11.07755,33.49383 21.4205,50.36448 9.82231,16.02145 14.08992,27.81556 12.86684,35.55929 -2.36381,14.96616 -20.71002,21.42402 -49.11808,17.28958 l 0,0 z"
           id="path3395"
           inkscape:connector-curvature="0"
           transform="matrix(0.92653735,0,0,0.92653735,-168.69584,560.37069)" />
      </g>
    </g>
  </g>
</svg>
